<svg width="287" height="58" viewBox="0 0 287 58" fill="none" xmlns="http://www.w3.org/2000/svg">
<path d="M15.6171 30.4757C7.00637 30.4757 0 25.8842 0 20.2412C0 14.5982 7.00637 10.0164 15.6171 10.0164C24.2279 10.0164 31.2343 14.6079 31.2343 20.2509C31.2343 21.0515 30.2481 21.6978 29.0264 21.6978C27.8047 21.6978 26.8185 21.0515 26.8185 20.2509C26.8185 16.2091 21.7992 12.9102 15.6171 12.9102C9.43504 12.9102 4.41578 16.1995 4.41578 20.2509C4.41578 24.3022 9.43504 27.5915 15.6171 27.5915C16.8388 27.5915 17.825 28.2378 17.825 29.0384C17.825 29.8391 16.8388 30.4757 15.6171 30.4757Z" fill="#FFD700"/>
<path d="M15.6172 12.9103C14.3955 12.9103 13.4093 12.264 13.4093 11.4634V4.85585C13.4093 4.05522 14.3955 3.40894 15.6172 3.40894C16.8389 3.40894 17.8251 4.05522 17.8251 4.85585V11.4634C17.8251 12.264 16.8389 12.9103 15.6172 12.9103Z" fill="#FFD700"/>
<path d="M15.6171 48.0413C7.00637 48.0413 0 43.4497 0 37.8068C0 37.0061 0.98619 36.3598 2.20789 36.3598C3.42959 36.3598 4.41578 37.0061 4.41578 37.8068C4.41578 41.8485 9.43504 45.1474 15.6171 45.1474C21.7992 45.1474 26.8185 41.8581 26.8185 37.8068C26.8185 33.7554 21.7992 30.4661 15.6171 30.4661C14.3954 30.4661 13.4092 29.8198 13.4092 29.0192C13.4092 28.2186 14.3954 27.5723 15.6171 27.5723C24.2279 27.5723 31.2343 32.1638 31.2343 37.8068C31.2343 43.4497 24.2279 48.0413 15.6171 48.0413Z" fill="#FFD700"/>
<path d="M15.6172 54.5912C14.3955 54.5912 13.4093 53.9449 13.4093 53.1443V46.5368C13.4093 45.7361 14.3955 45.0898 15.6172 45.0898C16.8389 45.0898 17.8251 45.7361 17.8251 46.5368V53.1443C17.8251 53.9449 16.8389 54.5912 15.6172 54.5912Z" fill="#FFD700"/>
<path d="M48.9943 47.24C46.8183 47.24 44.8503 46.744 43.0903 45.752C41.3303 44.728 39.9223 43.272 38.8663 41.384C37.8423 39.464 37.3303 37.128 37.3303 34.376C37.3303 31.624 37.8423 29.304 38.8663 27.416C39.8903 25.496 41.2823 24.04 43.0423 23.048C44.8023 22.056 46.7863 21.56 48.9943 21.56C51.3943 21.56 53.5383 22.104 55.4263 23.192C57.3463 24.248 58.8503 25.752 59.9383 27.704C61.0263 29.624 61.5703 31.848 61.5703 34.376C61.5703 36.936 61.0263 39.176 59.9383 41.096C58.8503 43.016 57.3463 44.52 55.4263 45.608C53.5383 46.696 51.3943 47.24 48.9943 47.24ZM35.9863 56.312V21.8H39.2503V29.384L38.9143 34.424L39.3943 39.512V56.312H35.9863ZM48.7543 44.216C50.5463 44.216 52.1463 43.816 53.5543 43.016C54.9623 42.184 56.0823 41.032 56.9143 39.56C57.7463 38.056 58.1623 36.328 58.1623 34.376C58.1623 32.424 57.7463 30.712 56.9143 29.24C56.0823 27.768 54.9623 26.616 53.5543 25.784C52.1463 24.952 50.5463 24.536 48.7543 24.536C46.9623 24.536 45.3463 24.952 43.9063 25.784C42.4983 26.616 41.3783 27.768 40.5463 29.24C39.7463 30.712 39.3463 32.424 39.3463 34.376C39.3463 36.328 39.7463 38.056 40.5463 39.56C41.3783 41.032 42.4983 42.184 43.9063 43.016C45.3463 43.816 46.9623 44.216 48.7543 44.216ZM79.2215 47.24C76.5975 47.24 74.2935 46.696 72.3095 45.608C70.3255 44.488 68.7735 42.968 67.6535 41.048C66.5335 39.096 65.9735 36.872 65.9735 34.376C65.9735 31.88 66.5015 29.672 67.5575 27.752C68.6455 25.832 70.1175 24.328 71.9735 23.24C73.8615 22.12 75.9735 21.56 78.3095 21.56C80.6775 21.56 82.7735 22.104 84.5975 23.192C86.4535 24.248 87.9095 25.752 88.9655 27.704C90.0215 29.624 90.5495 31.848 90.5495 34.376C90.5495 34.536 90.5335 34.712 90.5015 34.904C90.5015 35.064 90.5015 35.24 90.5015 35.432H68.5655V32.888H88.6775L87.3335 33.896C87.3335 32.072 86.9335 30.456 86.1335 29.048C85.3655 27.608 84.3095 26.488 82.9655 25.688C81.6215 24.888 80.0695 24.488 78.3095 24.488C76.5815 24.488 75.0295 24.888 73.6535 25.688C72.2775 26.488 71.2055 27.608 70.4375 29.048C69.6695 30.488 69.2855 32.136 69.2855 33.992V34.52C69.2855 36.44 69.7015 38.136 70.5335 39.608C71.3975 41.048 72.5815 42.184 74.0855 43.016C75.6215 43.816 77.3655 44.216 79.3175 44.216C80.8535 44.216 82.2775 43.944 83.5895 43.4C84.9335 42.856 86.0855 42.024 87.0455 40.904L88.9655 43.112C87.8455 44.456 86.4375 45.48 84.7415 46.184C83.0775 46.888 81.2375 47.24 79.2215 47.24ZM110.35 21.56C112.398 21.56 114.19 21.96 115.726 22.76C117.294 23.528 118.51 24.712 119.374 26.312C120.27 27.912 120.718 29.928 120.718 32.36V47H117.31V32.696C117.31 30.04 116.638 28.04 115.294 26.696C113.982 25.32 112.126 24.632 109.726 24.632C107.934 24.632 106.366 25 105.022 25.736C103.71 26.44 102.686 27.48 101.95 28.856C101.246 30.2 100.894 31.832 100.894 33.752V47H97.4863V21.8H100.75V28.712L100.222 27.416C101.022 25.592 102.302 24.168 104.062 23.144C105.822 22.088 107.918 21.56 110.35 21.56ZM139.956 47.24C137.556 47.24 135.396 46.696 133.476 45.608C131.588 44.52 130.1 43.016 129.012 41.096C127.924 39.144 127.38 36.904 127.38 34.376C127.38 31.816 127.924 29.576 129.012 27.656C130.1 25.736 131.588 24.248 133.476 23.192C135.396 22.104 137.556 21.56 139.956 21.56C142.164 21.56 144.132 22.056 145.86 23.048C147.62 24.04 149.012 25.496 150.036 27.416C151.092 29.304 151.62 31.624 151.62 34.376C151.62 37.096 151.108 39.416 150.084 41.336C149.06 43.256 147.668 44.728 145.908 45.752C144.18 46.744 142.196 47.24 139.956 47.24ZM140.196 44.216C141.988 44.216 143.588 43.816 144.996 43.016C146.436 42.184 147.556 41.032 148.356 39.56C149.188 38.056 149.604 36.328 149.604 34.376C149.604 32.392 149.188 30.664 148.356 29.192C147.556 27.72 146.436 26.584 144.996 25.784C143.588 24.952 141.988 24.536 140.196 24.536C138.436 24.536 136.852 24.952 135.444 25.784C134.036 26.584 132.916 27.72 132.084 29.192C131.252 30.664 130.836 32.392 130.836 34.376C130.836 36.328 131.252 38.056 132.084 39.56C132.916 41.032 134.036 42.184 135.444 43.016C136.852 43.816 138.436 44.216 140.196 44.216ZM149.7 47V39.416L150.036 34.328L149.556 29.24V11.384H152.964V47H149.7ZM170.807 47L159.479 13.4H163.127L173.735 45.032H171.911L182.855 13.4H186.119L196.919 45.032H195.191L205.895 13.4H209.303L197.975 47H194.231L183.911 17H184.871L174.503 47H170.807ZM214.955 47V21.8H218.363V47H214.955ZM216.683 16.232C215.979 16.232 215.387 15.992 214.907 15.512C214.427 15.032 214.187 14.456 214.187 13.784C214.187 13.112 214.427 12.552 214.907 12.104C215.387 11.624 215.979 11.384 216.683 11.384C217.387 11.384 217.979 11.608 218.459 12.056C218.939 12.504 219.179 13.064 219.179 13.736C219.179 14.44 218.939 15.032 218.459 15.512C218.011 15.992 217.419 16.232 216.683 16.232ZM234.614 47.24C232.534 47.24 230.566 46.952 228.71 46.376C226.854 45.768 225.398 45.016 224.342 44.12L225.878 41.432C226.902 42.2 228.214 42.872 229.814 43.448C231.414 43.992 233.094 44.264 234.854 44.264C237.254 44.264 238.982 43.896 240.038 43.16C241.094 42.392 241.622 41.384 241.622 40.136C241.622 39.208 241.318 38.488 240.71 37.976C240.134 37.432 239.366 37.032 238.406 36.776C237.446 36.488 236.374 36.248 235.19 36.056C234.006 35.864 232.822 35.64 231.638 35.384C230.486 35.128 229.43 34.76 228.47 34.28C227.51 33.768 226.726 33.08 226.118 32.216C225.542 31.352 225.254 30.2 225.254 28.76C225.254 27.384 225.638 26.152 226.406 25.064C227.174 23.976 228.294 23.128 229.766 22.52C231.27 21.88 233.094 21.56 235.238 21.56C236.87 21.56 238.502 21.784 240.134 22.232C241.766 22.648 243.11 23.208 244.166 23.912L242.678 26.648C241.558 25.88 240.358 25.336 239.078 25.016C237.798 24.664 236.518 24.488 235.238 24.488C232.966 24.488 231.286 24.888 230.198 25.688C229.142 26.456 228.614 27.448 228.614 28.664C228.614 29.624 228.902 30.376 229.478 30.92C230.086 31.464 230.87 31.896 231.83 32.216C232.822 32.504 233.894 32.744 235.046 32.936C236.23 33.128 237.398 33.368 238.55 33.656C239.734 33.912 240.806 34.28 241.766 34.76C242.758 35.208 243.542 35.864 244.118 36.728C244.726 37.56 245.03 38.664 245.03 40.04C245.03 41.512 244.614 42.792 243.782 43.88C242.982 44.936 241.798 45.768 240.23 46.376C238.694 46.952 236.822 47.24 234.614 47.24ZM261.987 47.24C259.363 47.24 257.059 46.696 255.075 45.608C253.091 44.488 251.539 42.968 250.419 41.048C249.299 39.096 248.739 36.872 248.739 34.376C248.739 31.88 249.267 29.672 250.323 27.752C251.411 25.832 252.883 24.328 254.739 23.24C256.627 22.12 258.739 21.56 261.075 21.56C263.443 21.56 265.539 22.104 267.363 23.192C269.219 24.248 270.675 25.752 271.731 27.704C272.787 29.624 273.315 31.848 273.315 34.376C273.315 34.536 273.299 34.712 273.267 34.904C273.267 35.064 273.267 35.24 273.267 35.432H251.331V32.888H271.443L270.099 33.896C270.099 32.072 269.699 30.456 268.899 29.048C268.131 27.608 267.075 26.488 265.731 25.688C264.387 24.888 262.835 24.488 261.075 24.488C259.347 24.488 257.795 24.888 256.419 25.688C255.043 26.488 253.971 27.608 253.203 29.048C252.435 30.488 252.051 32.136 252.051 33.992V34.52C252.051 36.44 252.467 38.136 253.299 39.608C254.163 41.048 255.347 42.184 256.851 43.016C258.387 43.816 260.131 44.216 262.083 44.216C263.619 44.216 265.043 43.944 266.355 43.4C267.699 42.856 268.851 42.024 269.811 40.904L271.731 43.112C270.611 44.456 269.203 45.48 267.507 46.184C265.843 46.888 264.003 47.24 261.987 47.24Z" fill="black"/>
<g clip-path="url(#clip0_55_55)">
<path d="M216.5 10C213.463 10 211 11.7911 211 14C211 16.2089 213.463 18 216.5 18C219.537 18 222 16.2089 222 14C222 11.7911 219.537 10 216.5 10Z" fill="#FFB61C"/>
<path d="M216.5 10.05C219.5 10.05 221.931 11.8182 221.931 14C221.931 16.1819 219.5 17.95 216.5 17.95C213.5 17.95 211.069 16.1819 211.069 14C211.069 11.8182 213.5 10.05 216.5 10.05Z" fill="#FCD116"/>
<path d="M217.146 10.6298C217.134 10.8064 216.926 10.9421 216.683 10.9329C216.441 10.9236 216.254 10.7729 216.267 10.5963C216.279 10.4196 216.487 10.2839 216.73 10.2932C216.972 10.3024 217.159 10.4531 217.146 10.6298Z" fill="#FEBC1A"/>
<path d="M216.659 17.4035C216.646 17.5801 216.439 17.7158 216.196 17.7066C215.953 17.6973 215.766 17.5466 215.779 17.37C215.792 17.1933 215.999 17.0576 216.242 17.0669C216.485 17.0761 216.671 17.2268 216.659 17.4035Z" fill="#FEBC1A"/>
<path d="M221.131 14.277C220.888 14.2793 220.688 14.1377 220.685 13.9608C220.682 13.784 220.877 13.6388 221.12 13.6365C221.363 13.6343 221.563 13.7758 221.566 13.9527C221.569 14.1296 221.374 14.2748 221.131 14.277Z" fill="#FEBC1A"/>
<path d="M211.805 14.3632C211.562 14.3655 211.363 14.2239 211.359 14.047C211.356 13.8701 211.551 13.7249 211.794 13.7227C212.037 13.7204 212.237 13.862 212.24 14.0389C212.243 14.2158 212.049 14.361 211.805 14.3632Z" fill="#FEBC1A"/>
<path d="M220.749 15.3743C220.518 15.3185 220.393 15.1371 220.47 14.9693C220.547 14.8014 220.796 14.7106 221.027 14.7665C221.258 14.8223 221.382 15.0036 221.306 15.1715C221.229 15.3393 220.98 15.4301 220.749 15.3743Z" fill="#FEBC1A"/>
<path d="M211.899 13.2334C211.668 13.1776 211.543 12.9963 211.62 12.8284C211.697 12.6606 211.946 12.5698 212.177 12.6256C212.408 12.6814 212.533 12.8628 212.456 13.0306C212.379 13.1985 212.13 13.2893 211.899 13.2334Z" fill="#FEBC1A"/>
<path d="M220.522 12.206C220.334 12.3178 220.056 12.2973 219.903 12.1602C219.749 12.0231 219.777 11.8213 219.966 11.7095C220.154 11.5977 220.431 11.6182 220.585 11.7553C220.739 11.8924 220.711 12.0942 220.522 12.206Z" fill="#FEBC1A"/>
<path d="M213.03 16.2902C212.841 16.402 212.564 16.3815 212.41 16.2444C212.256 16.1073 212.284 15.9056 212.473 15.7938C212.661 15.682 212.939 15.7025 213.092 15.8396C213.246 15.9766 213.218 16.1784 213.03 16.2902Z" fill="#FEBC1A"/>
<path d="M220.994 13.1368C220.766 13.1976 220.513 13.1121 220.429 12.9459C220.346 12.7798 220.463 12.5959 220.692 12.5352C220.92 12.4745 221.173 12.5599 221.257 12.7261C221.34 12.8922 221.222 13.0761 220.994 13.1368Z" fill="#FEBC1A"/>
<path d="M212.234 15.4647C212.005 15.5254 211.752 15.4399 211.669 15.2738C211.585 15.1077 211.703 14.9238 211.931 14.863C212.16 14.8023 212.413 14.8878 212.496 15.054C212.58 15.2201 212.462 15.404 212.234 15.4647Z" fill="#FEBC1A"/>
<path d="M217.205 17.3635C217.144 17.1923 217.285 17.0175 217.521 16.9732C217.756 16.9289 217.997 17.0318 218.058 17.203C218.118 17.3743 217.977 17.549 217.742 17.5933C217.506 17.6377 217.266 17.5348 217.205 17.3635Z" fill="#FEBC1A"/>
<path d="M214.868 10.7969C214.807 10.6256 214.948 10.4509 215.184 10.4065C215.419 10.3622 215.66 10.4651 215.721 10.6364C215.782 10.8076 215.64 10.9824 215.405 11.0267C215.169 11.071 214.929 10.9681 214.868 10.7969Z" fill="#FEBC1A"/>
<path d="M213.293 16.5083C213.44 16.3674 213.716 16.3398 213.91 16.4467C214.104 16.5537 214.142 16.7546 213.995 16.8955C213.848 17.0364 213.572 17.064 213.378 16.9571C213.184 16.8501 213.146 16.6492 213.293 16.5083Z" fill="#FEBC1A"/>
<path d="M218.931 11.1045C219.078 10.9636 219.354 10.936 219.548 11.0429C219.741 11.1498 219.779 11.3508 219.632 11.4917C219.485 11.6326 219.209 11.6602 219.015 11.5532C218.822 11.4463 218.784 11.2454 218.931 11.1045Z" fill="#FEBC1A"/>
<path d="M216.5 11.1836C214.362 11.1836 212.628 12.4446 212.628 13.9999C212.628 15.5553 214.362 16.8162 216.5 16.8162C218.639 16.8162 220.373 15.5553 220.373 13.9999C220.373 12.4446 218.639 11.1836 216.5 11.1836Z" fill="#F39C12"/>
<path d="M216.5 11.1956C218.63 11.1956 220.356 12.4511 220.356 14C220.356 15.5489 218.63 16.8044 216.5 16.8044C214.37 16.8044 212.644 15.5489 212.644 14C212.644 12.4511 214.37 11.1956 216.5 11.1956Z" fill="#FFB61C"/>
<path d="M216.5 11.0857C214.288 11.0857 212.493 12.391 212.493 13.9999C212.493 15.6089 214.288 16.9142 216.5 16.9142C218.712 16.9142 220.507 15.6089 220.507 13.9999C220.507 12.391 218.712 11.0857 216.5 11.0857ZM216.5 11.1809C218.642 11.1809 220.376 12.4425 220.376 13.9999C220.376 15.5574 218.642 16.819 216.5 16.819C214.359 16.819 212.624 15.5574 212.624 13.9999C212.624 12.4425 214.359 11.1809 216.5 11.1809Z" fill="#F39C12"/>
<path d="M216.192 12.2847V12.7763C215.712 12.92 215.427 13.2963 215.515 13.6765C215.608 14.0778 216.096 14.3751 216.652 14.3587C216.789 14.3712 216.905 14.4485 216.931 14.565C216.962 14.6993 216.855 14.8205 216.694 14.8536C216.534 14.8867 216.372 14.8286 216.308 14.7025L215.575 14.9012C215.686 15.1182 215.916 15.2836 216.192 15.368V15.8653H216.975V15.3852C217.486 15.2536 217.794 14.8643 217.703 14.4708C217.61 14.0697 217.122 13.7724 216.567 13.7887C216.429 13.7763 216.314 13.6989 216.287 13.5823C216.256 13.448 216.363 13.3269 216.524 13.2938C216.684 13.2606 216.846 13.3187 216.91 13.4448L217.644 13.2462C217.526 13.016 217.274 12.844 216.975 12.7649V12.2847L216.192 12.2847Z" fill="#E6A419"/>
<path d="M216.061 12.1934V12.2097V12.6915C215.58 12.8413 215.295 13.2205 215.384 13.6043C215.478 14.0135 215.977 14.3168 216.544 14.3L216.54 14.2999C216.668 14.3115 216.775 14.3826 216.8 14.4927C216.83 14.6193 216.728 14.7321 216.579 14.7629C216.429 14.7938 216.281 14.7411 216.22 14.6219L216.212 14.6065L215.437 14.8166L215.445 14.8319C215.556 15.0496 215.785 15.2159 216.061 15.3033V15.8067H216.888V15.3207C217.4 15.1824 217.708 14.7902 217.616 14.3932C217.522 13.9849 217.026 13.6823 216.46 13.6976C216.332 13.686 216.225 13.6149 216.2 13.5047C216.171 13.3781 216.272 13.2653 216.421 13.2345C216.571 13.2036 216.719 13.2563 216.78 13.3756L216.788 13.3909L217.564 13.1809L217.556 13.1656C217.437 12.9346 217.187 12.7616 216.888 12.6792V12.1934H216.061Z" fill="#FFB61C"/>
<path d="M216.106 12.2261H216.843V12.7014L216.858 12.7053C217.145 12.781 217.386 12.9441 217.505 13.1619L216.813 13.3493C216.74 13.2271 216.573 13.1692 216.409 13.2031C216.237 13.2385 216.123 13.3681 216.156 13.5101C216.184 13.633 216.307 13.7167 216.455 13.73L216.457 13.7301L216.459 13.7301C217.002 13.7141 217.481 14.0054 217.572 14.3986C217.661 14.7843 217.359 15.1659 216.858 15.2948L216.843 15.2987V15.774H216.106V15.2822L216.092 15.278C215.827 15.1972 215.607 15.0406 215.496 14.8355L216.187 14.6481C216.261 14.7703 216.427 14.8282 216.592 14.7943C216.763 14.7589 216.878 14.6293 216.845 14.4873C216.816 14.3645 216.693 14.2809 216.546 14.2675L216.544 14.2673L216.542 14.2673C215.998 14.2834 215.519 13.9921 215.428 13.5989C215.342 13.2261 215.621 12.8572 216.092 12.7165L216.106 12.7123L216.106 12.2261Z" fill="#F39C12"/>
<path d="M214.421 14.0133C214.421 14.1471 214.272 14.2555 214.088 14.2555C213.904 14.2555 213.755 14.1471 213.755 14.0133C213.755 13.8795 213.904 13.771 214.088 13.771C214.272 13.771 214.421 13.8795 214.421 14.0133Z" fill="#D89E22"/>
<path d="M214.06 13.7446C213.87 13.7446 213.716 13.8568 213.716 13.995C213.716 14.1333 213.87 14.2455 214.06 14.2455C214.25 14.2455 214.404 14.1333 214.404 13.995C214.404 13.8568 214.25 13.7446 214.06 13.7446Z" fill="#F39C12"/>
<path d="M219.285 14.0133C219.285 14.1471 219.136 14.2555 218.952 14.2555C218.768 14.2555 218.618 14.1471 218.618 14.0133C218.618 13.8795 218.768 13.771 218.952 13.771C219.136 13.771 219.285 13.8795 219.285 14.0133Z" fill="#D89E22"/>
<path d="M218.923 13.7446C218.733 13.7446 218.579 13.8568 218.579 13.995C218.579 14.1333 218.733 14.2455 218.923 14.2455C219.113 14.2455 219.268 14.1333 219.268 13.995C219.268 13.8568 219.113 13.7446 218.923 13.7446Z" fill="#F39C12"/>
<path d="M219.861 16.3448C219.669 16.2357 219.636 16.0343 219.786 15.8951C219.936 15.7559 220.213 15.7316 220.404 15.8407C220.596 15.9499 220.629 16.1512 220.479 16.2904C220.329 16.4296 220.052 16.454 219.861 16.3448V16.3448Z" fill="#FEBC1A"/>
<path d="M212.521 12.1595C212.33 12.0504 212.297 11.849 212.447 11.7098C212.597 11.5706 212.874 11.5463 213.065 11.6554C213.256 11.7646 213.29 11.9659 213.14 12.1051C212.99 12.2443 212.713 12.2687 212.521 12.1595Z" fill="#FEBC1A"/>
<path d="M218.617 17.0252C218.485 16.8765 218.544 16.6783 218.749 16.5825C218.953 16.4868 219.226 16.5297 219.357 16.6784C219.489 16.8272 219.43 17.0254 219.225 17.1211C219.021 17.2169 218.748 17.1739 218.617 17.0252Z" fill="#FEBC1A"/>
<path d="M213.568 11.3218C213.437 11.1731 213.496 10.9749 213.7 10.8791C213.905 10.7834 214.177 10.8263 214.309 10.9751C214.441 11.1238 214.382 11.322 214.177 11.4178C213.973 11.5135 213.7 11.4706 213.568 11.3218Z" fill="#FEBC1A"/>
<path d="M218.468 10.9214C218.385 11.0876 218.132 11.1735 217.904 11.1132C217.675 11.0528 217.557 10.8691 217.64 10.7028C217.723 10.5365 217.975 10.4507 218.204 10.511C218.433 10.5714 218.551 10.7551 218.468 10.9214Z" fill="#FEBC1A"/>
<path d="M215.286 17.2973C215.203 17.4636 214.95 17.5495 214.722 17.4891C214.493 17.4288 214.375 17.2451 214.458 17.0788C214.541 16.9125 214.794 16.8266 215.022 16.887C215.251 16.9473 215.369 17.1311 215.286 17.2973Z" fill="#FEBC1A"/>
</g>
<defs>
<clipPath id="clip0_55_55">
<rect width="11" height="8" fill="white" transform="translate(211 10)"/>
</clipPath>
</defs>
</svg>
